<svg width="49" height="48" viewBox="0 0 49 48" fill="none" xmlns="http://www.w3.org/2000/svg">
<path d="M11.7583 12V16.311" stroke="black" stroke-width="2" stroke-linecap="round"/>
<path d="M22.4613 31.7523H32.0942M41.7271 31.7523C41.7271 34.1765 39.8103 36.1417 37.4458 36.1417C35.0813 36.1417 33.1645 34.1765 33.1645 31.7523M41.7271 31.7523C41.7271 29.3281 39.8103 27.3629 37.4458 27.3629C35.0813 27.3629 33.1645 29.3281 33.1645 31.7523M41.7271 31.7523V31.7523C42.3182 31.7523 42.7974 31.2731 42.7974 30.682V23.7292C42.7974 23.2447 42.608 22.7794 42.2697 22.4325L37.9924 18.0471C37.6429 17.6888 37.1635 17.4867 36.663 17.4867H33.9512C32.9256 17.4867 32.0942 18.3182 32.0942 19.3438V31.7523M33.1645 31.7523H32.0942M11.7581 12H30.2371C31.2627 12 32.0942 12.8314 32.0942 13.8571V31.7523" stroke="black" stroke-width="2" stroke-linecap="round" stroke-linejoin="round"/>
<path d="M12.8117 34.129C12.9534 34.2301 13.1231 34.2844 13.2971 34.2844C13.4711 34.2844 13.6408 34.2301 13.7824 34.129C17.9674 31.146 22.409 25.0101 17.9189 20.5763C16.6867 19.3631 15.0263 18.6838 13.2971 18.6853C11.5638 18.6853 9.90066 19.3656 8.67522 20.5755C4.18511 25.0093 8.62669 31.1443 12.8117 34.129Z" stroke="black" stroke-width="2" stroke-linecap="round" stroke-linejoin="round"/>
<path d="M13.2972 26.4852C12.8375 26.4852 12.3966 26.3025 12.0716 25.9775C11.7465 25.6524 11.5639 25.2116 11.5639 24.7519C11.5639 24.2922 11.7465 23.8513 12.0716 23.5262C12.3966 23.2012 12.8375 23.0186 13.2972 23.0186C13.7569 23.0186 14.1978 23.2012 14.5228 23.5262C14.8479 23.8513 15.0305 24.2922 15.0305 24.7519C15.0305 25.2116 14.8479 25.6524 14.5228 25.9775C14.1978 26.3025 13.7569 26.4852 13.2972 26.4852Z" stroke="#EB000E" stroke-width="2" stroke-linecap="round" stroke-linejoin="round"/>
</svg>
