<svg width="49" height="48" viewBox="0 0 49 48" fill="none" xmlns="http://www.w3.org/2000/svg">
<path d="M25.2253 24L25.062 39.817" stroke="black" stroke-width="2" stroke-linecap="round" stroke-linejoin="round"/>
<path d="M24.9707 8L10.8987 16.041V31.959L24.9707 40L39.2064 31.959V16.041L24.9707 8Z" stroke="black" stroke-width="2" stroke-linecap="round"/>
<path d="M39.0477 16.0979L25.2257 24.0014L11.0781 16.0962" stroke="black" stroke-width="2" stroke-linecap="round" stroke-linejoin="round"/>
<path d="M31.6211 27.1552V28.1552H33.6211V27.1552H31.6211ZM32.6211 19.7706H33.6211V19.1839L33.1089 18.8977L32.6211 19.7706ZM18.8352 10.922C18.3531 10.6526 17.7438 10.825 17.4744 11.3071C17.2051 11.7893 17.3775 12.3985 17.8596 12.6679L18.8352 10.922ZM33.6211 27.1552V19.7706H31.6211V27.1552H33.6211ZM33.1089 18.8977L18.8352 10.922L17.8596 12.6679L32.1333 20.6436L33.1089 18.8977Z" fill="#EB000E"/>
</svg>
