<svg width="48" height="48" viewBox="0 0 48 48" fill="none" xmlns="http://www.w3.org/2000/svg">
<path d="M36.4074 27.9306L36.396 27.9649C36.2078 28.3445 35.3374 30.0486 33.6682 32.1051C31.7763 34.436 28.8982 37.1695 24.8889 38.9405H24.7499L24.7009 38.9628C24.6713 38.9579 24.6401 38.9535 24.6075 38.9499C17.2081 35.6924 13.678 29.1744 13 27.7972V14.852C14.8871 14.3496 17.0665 13.3509 19.0775 12.2887C21.1785 11.1789 23.158 9.96588 24.5308 9.0857L24.5383 9.08088L24.5458 9.07592L24.6035 9.0372C24.613 9.0333 24.6234 9.02888 24.6346 9.02392C24.6368 9.02302 24.6397 9.02186 24.6434 9.02035C24.6509 9.0173 24.6621 9.01278 24.6754 9.00719C24.7435 9.05436 24.8292 9.11212 24.9294 9.17837C25.155 9.32747 25.4682 9.52881 25.8502 9.76697C26.6143 10.2434 27.6627 10.8728 28.8483 11.5326C31.1611 12.8195 34.0904 14.2755 36.4573 14.8874V27.7815L36.4431 27.8235L36.4573 27.8283L36.4431 27.8236L36.4074 27.9306ZM24.5251 9.06653L24.5266 9.06604C24.5242 9.06691 24.5236 9.06709 24.5251 9.06653ZM24.3717 39.1219L24.3711 39.1223C24.3675 39.1245 24.368 39.1241 24.3717 39.1219Z" fill="white" stroke="black" stroke-width="2"/>
<path d="M30.3792 21.3816C30.3792 21.1556 30.2841 20.9355 30.1116 20.7571C29.7607 20.4121 29.2134 20.4061 28.8685 20.7571L23.6045 26.021L20.7198 23.1362C20.3748 22.7913 19.8216 22.7913 19.4766 23.1362C19.3042 23.3087 19.209 23.5288 19.209 23.7608C19.209 23.9928 19.3042 24.2069 19.4766 24.3853L22.9859 27.8946C23.3309 28.2396 23.8841 28.2396 24.2291 27.8946L30.1175 22.0061C30.29 21.8336 30.3852 21.6136 30.3852 21.3816H30.3792Z" fill="#EB000E"/>
</svg>
