<?xml version="1.0" encoding="UTF-8"?>
<svg id="Layer_1" xmlns="http://www.w3.org/2000/svg" version="1.1" viewBox="0 0 1440 792">
  <!-- Generator: Adobe Illustrator 29.3.0, SVG Export Plug-In . SVG Version: 2.1.0 Build 146)  -->
  <defs>
    <style>
      .st0 {
        fill: #fff;
      }

      .st1 {
        fill: #bf0c3f;
      }

      .st2 {
        fill: #6d6e70;
      }
    </style>
  </defs>
  <path class="st1" d="M458.16,602.16c113.89,0,206.15-92.39,206.15-206.2s-92.26-206.12-206.15-206.12-206.16,92.22-206.16,206.12,92.3,206.2,206.16,206.2"/>
  <polygon class="st0" points="449.97 305.47 449.97 486.23 507.41 486.23 507.41 470.11 466.39 470.11 466.39 305.47 449.97 305.47"/>
  <path class="st0" d="M392.35,354.82c13.65,0,24.76-11.06,24.76-24.71s-11.11-24.76-24.76-24.76-24.71,11.11-24.71,24.76,11.16,24.71,24.71,24.71"/>
  <path class="st0" d="M466.38,223.48c-2.12-.08-6.22-.13-8.2-.13-95.1,0-172.56,77.4-172.56,172.59,0,46.09,17.94,89.36,50.46,121.98,32.74,32.6,76.1,50.53,122.1,50.53s89.4-17.92,122.1-50.53c32.52-32.62,50.41-75.89,50.41-121.98v-7.9l-6.87.09h-116.27v15.98h106.77v2.33c-5.49,81.38-73.42,145.9-156.14,145.9-41.76,0-81.03-16.28-110.57-45.78-29.59-29.54-45.87-68.84-45.87-110.62s16.28-81.11,45.87-110.61c29.54-29.63,68.81-45.88,110.57-45.88,1.9,0,6.35.05,8.2.09v-16.06Z"/>
  <polygon class="st2" points="818.08 261.58 756.48 261.58 756.48 528.11 945.66 528.11 945.66 476.24 818.08 476.24 818.08 261.58"/>
  <path class="st2" d="M1081.1,426.52h50.15v46.61c-9.24,3.54-27.25,7.08-44.39,7.08-55.43,0-73.95-28.2-73.95-85.39s17.62-86.65,73.03-86.65c30.81,0,48.39,9.67,62.9,28.16l38.31-35.15c-23.32-33.44-64.27-43.59-102.49-43.59-86.25,0-131.57,47.08-131.57,136.8s40.91,137.65,131.09,137.65c41.33,0,81.8-10.54,103.83-25.92v-129.31h-106.91v49.71Z"/>
</svg>